<mxfile host="app.diagrams.net" modified="2021-11-06T09:37:09.096Z" agent="5.0 (Windows NT 10.0; Win64; x64) AppleWebKit/537.36 (KHTML, like Gecko) Chrome/95.0.4638.69 Safari/537.36" etag="otgK8BuAz__cDAlcMlxC" version="15.7.0" type="github">
  <diagram id="eu44TbCLcbkOOfFLqBpK" name="Page-1">
    <mxGraphModel dx="1038" dy="547" grid="1" gridSize="10" guides="1" tooltips="1" connect="1" arrows="1" fold="1" page="1" pageScale="1" pageWidth="1200" pageHeight="1600" math="0" shadow="0">
      <root>
        <mxCell id="0" />
        <mxCell id="1" parent="0" />
        <mxCell id="krQhxxFaDjVkDDATpqEx-3" value="" style="edgeStyle=orthogonalEdgeStyle;rounded=0;orthogonalLoop=1;jettySize=auto;html=1;" edge="1" parent="1" source="krQhxxFaDjVkDDATpqEx-1" target="krQhxxFaDjVkDDATpqEx-2">
          <mxGeometry relative="1" as="geometry" />
        </mxCell>
        <mxCell id="krQhxxFaDjVkDDATpqEx-1" value="Келнер" style="shape=umlActor;verticalLabelPosition=bottom;verticalAlign=top;html=1;outlineConnect=0;" vertex="1" parent="1">
          <mxGeometry x="30" y="30" width="30" height="60" as="geometry" />
        </mxCell>
        <mxCell id="krQhxxFaDjVkDDATpqEx-5" value="" style="edgeStyle=orthogonalEdgeStyle;rounded=0;orthogonalLoop=1;jettySize=auto;html=1;" edge="1" parent="1" source="krQhxxFaDjVkDDATpqEx-2" target="krQhxxFaDjVkDDATpqEx-4">
          <mxGeometry relative="1" as="geometry" />
        </mxCell>
        <mxCell id="krQhxxFaDjVkDDATpqEx-2" value="&lt;br&gt;Прима нарачка" style="ellipse;whiteSpace=wrap;html=1;verticalAlign=top;" vertex="1" parent="1">
          <mxGeometry x="130" y="30" width="120" height="60" as="geometry" />
        </mxCell>
        <mxCell id="krQhxxFaDjVkDDATpqEx-7" value="" style="edgeStyle=orthogonalEdgeStyle;rounded=0;orthogonalLoop=1;jettySize=auto;html=1;" edge="1" parent="1" source="krQhxxFaDjVkDDATpqEx-4" target="krQhxxFaDjVkDDATpqEx-6">
          <mxGeometry relative="1" as="geometry" />
        </mxCell>
        <mxCell id="krQhxxFaDjVkDDATpqEx-9" value="" style="edgeStyle=orthogonalEdgeStyle;rounded=0;orthogonalLoop=1;jettySize=auto;html=1;" edge="1" parent="1" source="krQhxxFaDjVkDDATpqEx-4" target="krQhxxFaDjVkDDATpqEx-8">
          <mxGeometry relative="1" as="geometry" />
        </mxCell>
        <mxCell id="krQhxxFaDjVkDDATpqEx-4" value="&amp;nbsp;внес на нарачката во системот&lt;br&gt;" style="ellipse;whiteSpace=wrap;html=1;verticalAlign=top;" vertex="1" parent="1">
          <mxGeometry x="330" y="30" width="120" height="60" as="geometry" />
        </mxCell>
        <mxCell id="krQhxxFaDjVkDDATpqEx-6" value="&lt;br&gt;Праќање до куварот" style="ellipse;whiteSpace=wrap;html=1;verticalAlign=top;" vertex="1" parent="1">
          <mxGeometry x="315" y="190" width="150" height="70" as="geometry" />
        </mxCell>
        <mxCell id="krQhxxFaDjVkDDATpqEx-11" value="" style="edgeStyle=orthogonalEdgeStyle;rounded=0;orthogonalLoop=1;jettySize=auto;html=1;" edge="1" parent="1" source="krQhxxFaDjVkDDATpqEx-8" target="krQhxxFaDjVkDDATpqEx-10">
          <mxGeometry relative="1" as="geometry" />
        </mxCell>
        <mxCell id="krQhxxFaDjVkDDATpqEx-8" value="информации кои рецепти треба да ги спреми.&lt;br&gt;" style="ellipse;whiteSpace=wrap;html=1;verticalAlign=top;" vertex="1" parent="1">
          <mxGeometry x="535" y="25" width="130" height="70" as="geometry" />
        </mxCell>
        <mxCell id="krQhxxFaDjVkDDATpqEx-10" value="Кувар" style="shape=umlActor;verticalLabelPosition=bottom;verticalAlign=top;html=1;outlineConnect=0;" vertex="1" parent="1">
          <mxGeometry x="750" y="30" width="30" height="60" as="geometry" />
        </mxCell>
        <mxCell id="krQhxxFaDjVkDDATpqEx-13" value="" style="endArrow=classic;html=1;rounded=0;exitX=0.991;exitY=0.3;exitDx=0;exitDy=0;exitPerimeter=0;" edge="1" parent="1" source="krQhxxFaDjVkDDATpqEx-6" target="krQhxxFaDjVkDDATpqEx-10">
          <mxGeometry width="50" height="50" relative="1" as="geometry">
            <mxPoint x="490" y="210" as="sourcePoint" />
            <mxPoint x="670" y="110" as="targetPoint" />
          </mxGeometry>
        </mxCell>
      </root>
    </mxGraphModel>
  </diagram>
</mxfile>
